<svg width="33" height="23" viewBox="0 0 33 23" fill="none" xmlns="http://www.w3.org/2000/svg">
<path d="M2.16667 22.25H30.8333C31.8187 22.25 32.625 21.4438 32.625 20.4583C32.625 19.4729 31.8187 18.6667 30.8333 18.6667H2.16667C1.18125 18.6667 0.375 19.4729 0.375 20.4583C0.375 21.4438 1.18125 22.25 2.16667 22.25ZM2.16667 13.2917H30.8333C31.8187 13.2917 32.625 12.4854 32.625 11.5C32.625 10.5146 31.8187 9.70833 30.8333 9.70833H2.16667C1.18125 9.70833 0.375 10.5146 0.375 11.5C0.375 12.4854 1.18125 13.2917 2.16667 13.2917ZM0.375 2.54167C0.375 3.52708 1.18125 4.33333 2.16667 4.33333H30.8333C31.8187 4.33333 32.625 3.52708 32.625 2.54167C32.625 1.55625 31.8187 0.75 30.8333 0.75H2.16667C1.18125 0.75 0.375 1.55625 0.375 2.54167Z" fill="white"/>
</svg>
